<svg xmlns="http://www.w3.org/2000/svg" width="11.68" height="20.032" viewBox="0 0 11.68 20.032">
  <defs>
    <style>
      .cls-1 {
        fill: #fff;
        fill-rule: evenodd;
      }
    </style>
  </defs>
  <path id="fa-angle-left" class="cls-1" d="M1843.17,467.259a0.654,0.654,0,0,0,.2.462l1,1a0.629,0.629,0,0,0,.92,0l9.34-9.341a0.631,0.631,0,0,0,0-.922l-9.34-9.34a0.627,0.627,0,0,0-.92,0l-1,1a0.631,0.631,0,0,0,0,.922l7.88,7.876-7.88,7.878A0.693,0.693,0,0,0,1843.17,467.259Z" transform="translate(-1843.16 -448.906)"/>
</svg>
