<svg xmlns="http://www.w3.org/2000/svg" width="19.906" height="20" viewBox="0 0 19.906 20">
  <defs>
    <style>
      .cls-1 {
        fill: #999999;
      }
    </style>
  </defs>
  <path id="skype" class="cls-1" d="M582.939,3763.35a9.062,9.062,0,0,0,.11-1.33,8.7,8.7,0,0,0-8.869-8.68,9.9,9.9,0,0,0-1.344.11,5.241,5.241,0,0,0-3.283-1.45,5.079,5.079,0,0,0-4.038,8.13,8.978,8.978,0,0,0-.2,1.89,9.09,9.09,0,0,0,8.869,9.14,9.225,9.225,0,0,0,1.835-.19,4.841,4.841,0,0,0,3.318,1.02A5.083,5.083,0,0,0,582.939,3763.35Zm-4.62,2.76a3.479,3.479,0,0,1-1.534,1.17,6.209,6.209,0,0,1-2.393.42,5.708,5.708,0,0,1-2.739-.58,3.5,3.5,0,0,1-1.243-1.11,2.376,2.376,0,0,1-.477-1.35,0.851,0.851,0,0,1,.286-0.65,0.99,0.99,0,0,1,.731-0.28,0.91,0.91,0,0,1,.608.21,1.7,1.7,0,0,1,.424.63,4.082,4.082,0,0,0,.463.83,1.933,1.933,0,0,0,.7.55,3.387,3.387,0,0,0,2.826-.22,1.284,1.284,0,0,0,.632-1.09,1.085,1.085,0,0,0-.34-0.83,2.141,2.141,0,0,0-.88-0.49,12.4,12.4,0,0,0-1.442-.36,11.96,11.96,0,0,1-2.023-.61,3.34,3.34,0,0,1-1.292-.96,2.33,2.33,0,0,1-.478-1.5,2.458,2.458,0,0,1,.5-1.52,3.2,3.2,0,0,1,1.461-1.02,6.376,6.376,0,0,1,2.248-.35,5.931,5.931,0,0,1,1.786.23,3.941,3.941,0,0,1,1.249.63,2.72,2.72,0,0,1,.727.82,1.8,1.8,0,0,1,.23.84,0.965,0.965,0,0,1-.287.68,0.947,0.947,0,0,1-.715.3,0.867,0.867,0,0,1-.593-0.18,2.475,2.475,0,0,1-.439-0.59,2.741,2.741,0,0,0-.735-0.92,2.279,2.279,0,0,0-1.377-.32,2.516,2.516,0,0,0-1.418.35,1.021,1.021,0,0,0-.539.86,0.829,0.829,0,0,0,.184.54,1.394,1.394,0,0,0,.5.38,3.358,3.358,0,0,0,.649.26q0.329,0.09,1.087.27c0.631,0.13,1.2.29,1.716,0.45a5.416,5.416,0,0,1,1.307.6,2.481,2.481,0,0,1,.842.89,2.686,2.686,0,0,1,.3,1.33A2.9,2.9,0,0,1,578.319,3766.11Z" transform="translate(-564.5 -3752)"/>
</svg>
